<svg width="39" height="38" viewBox="0 0 39 38" fill="none" xmlns="http://www.w3.org/2000/svg">
<g clip-path="url(#clip0_15_120)">
<path d="M8.9216 22.964L7.59888 27.9019L2.76434 28.0042C1.31952 25.3244 0.5 22.2583 0.5 19.0001C0.5 15.8495 1.26623 12.8783 2.62444 10.2622H2.62548L6.92957 11.0513L8.81502 15.3296C8.4204 16.48 8.20532 17.715 8.20532 19.0001C8.20547 20.3948 8.45811 21.7312 8.9216 22.964Z" fill="#FBBB00"/>
<path d="M38.1678 15.4504C38.386 16.5998 38.4998 17.7868 38.4998 18.9999C38.4998 20.3602 38.3568 21.687 38.0843 22.9669C37.1594 27.3223 34.7426 31.1254 31.3947 33.8168L31.3936 33.8157L25.9724 33.5391L25.2051 28.7494C27.4266 27.4466 29.1628 25.4077 30.0773 22.9669H19.9175V15.4504H30.2255H38.1678Z" fill="#518EF8"/>
<path d="M31.3936 33.8158L31.3946 33.8168C28.1386 36.434 24.0024 37.9999 19.4998 37.9999C12.2642 37.9999 5.97331 33.9557 2.76416 28.0041L8.92142 22.9639C10.526 27.2461 14.6569 30.2945 19.4998 30.2945C21.5814 30.2945 23.5316 29.7318 25.205 28.7494L31.3936 33.8158Z" fill="#28B446"/>
<path d="M31.6277 4.37416L25.4725 9.41331C23.7406 8.33076 21.6934 7.70539 19.5001 7.70539C14.5475 7.70539 10.3393 10.8936 8.81517 15.3294L2.62555 10.2621H2.62451C5.78667 4.16538 12.1569 0 19.5001 0C24.1102 0 28.3371 1.64216 31.6277 4.37416Z" fill="#F14336"/>
</g>
<defs>
<clipPath id="clip0_15_120">
<rect width="38" height="38" fill="white" transform="translate(0.5)"/>
</clipPath>
</defs>
</svg>
